<mxfile host="app.diagrams.net" agent="Mozilla/5.0 (Windows NT 10.0; Win64; x64) AppleWebKit/537.36 (KHTML, like Gecko) Chrome/130.0.0.0 Safari/537.36" version="24.8.0">
  <diagram name="PÃ¡gina-1" id="IKQRIppBOLb18Mhn2Sk4">
    <mxGraphModel dx="1434" dy="778" grid="1" gridSize="10" guides="1" tooltips="1" connect="1" arrows="1" fold="1" page="1" pageScale="1" pageWidth="827" pageHeight="1169" math="0" shadow="0">
      <root>
        <mxCell id="0" />
        <mxCell id="1" parent="0" />
        <mxCell id="9aB7gK6r0Hrf5LKnWwoQ-5" value="Usuario" style="rounded=0;whiteSpace=wrap;html=1;labelBackgroundColor=none;" parent="1" vertex="1">
          <mxGeometry x="165" y="160" width="120" height="60" as="geometry" />
        </mxCell>
        <mxCell id="9aB7gK6r0Hrf5LKnWwoQ-128" style="edgeStyle=orthogonalEdgeStyle;rounded=0;orthogonalLoop=1;jettySize=auto;html=1;exitX=0.5;exitY=0;exitDx=0;exitDy=0;endArrow=none;endFill=0;" parent="1" source="9aB7gK6r0Hrf5LKnWwoQ-7" target="9aB7gK6r0Hrf5LKnWwoQ-123" edge="1">
          <mxGeometry relative="1" as="geometry" />
        </mxCell>
        <mxCell id="9aB7gK6r0Hrf5LKnWwoQ-7" value="partida" style="rounded=0;whiteSpace=wrap;html=1;labelBackgroundColor=none;" parent="1" vertex="1">
          <mxGeometry x="640" y="160" width="120" height="60" as="geometry" />
        </mxCell>
        <mxCell id="9aB7gK6r0Hrf5LKnWwoQ-8" value="carta" style="rounded=0;whiteSpace=wrap;html=1;labelBackgroundColor=none;" parent="1" vertex="1">
          <mxGeometry x="275" y="680" width="120" height="60" as="geometry" />
        </mxCell>
        <mxCell id="9aB7gK6r0Hrf5LKnWwoQ-10" value="compone" style="rhombus;whiteSpace=wrap;html=1;labelBackgroundColor=none;" parent="1" vertex="1">
          <mxGeometry x="305" y="604.5" width="60" height="50" as="geometry" />
        </mxCell>
        <mxCell id="9aB7gK6r0Hrf5LKnWwoQ-28" style="edgeStyle=orthogonalEdgeStyle;rounded=0;orthogonalLoop=1;jettySize=auto;html=1;exitX=1;exitY=0.5;exitDx=0;exitDy=0;entryX=0;entryY=0.5;entryDx=0;entryDy=0;endArrow=none;endFill=0;labelBackgroundColor=none;fontColor=default;" parent="1" source="9aB7gK6r0Hrf5LKnWwoQ-12" target="9aB7gK6r0Hrf5LKnWwoQ-7" edge="1">
          <mxGeometry relative="1" as="geometry" />
        </mxCell>
        <mxCell id="9aB7gK6r0Hrf5LKnWwoQ-12" value="juegan" style="rhombus;whiteSpace=wrap;html=1;labelBackgroundColor=none;" parent="1" vertex="1">
          <mxGeometry x="445" y="160" width="80" height="60" as="geometry" />
        </mxCell>
        <mxCell id="9aB7gK6r0Hrf5LKnWwoQ-15" value="" style="endArrow=none;html=1;rounded=0;entryX=0.5;entryY=0;entryDx=0;entryDy=0;labelBackgroundColor=none;fontColor=default;" parent="1" source="9aB7gK6r0Hrf5LKnWwoQ-6" target="9aB7gK6r0Hrf5LKnWwoQ-10" edge="1">
          <mxGeometry width="50" height="50" relative="1" as="geometry">
            <mxPoint x="335" y="570" as="sourcePoint" />
            <mxPoint x="495" y="400" as="targetPoint" />
            <Array as="points" />
          </mxGeometry>
        </mxCell>
        <mxCell id="9aB7gK6r0Hrf5LKnWwoQ-16" value="" style="endArrow=none;html=1;rounded=0;exitX=0.5;exitY=0;exitDx=0;exitDy=0;entryX=0.5;entryY=1;entryDx=0;entryDy=0;labelBackgroundColor=none;fontColor=default;" parent="1" source="9aB7gK6r0Hrf5LKnWwoQ-8" target="9aB7gK6r0Hrf5LKnWwoQ-10" edge="1">
          <mxGeometry width="50" height="50" relative="1" as="geometry">
            <mxPoint x="355" y="440" as="sourcePoint" />
            <mxPoint x="355" y="410" as="targetPoint" />
            <Array as="points" />
          </mxGeometry>
        </mxCell>
        <mxCell id="9aB7gK6r0Hrf5LKnWwoQ-27" style="edgeStyle=orthogonalEdgeStyle;rounded=0;orthogonalLoop=1;jettySize=auto;html=1;entryX=0;entryY=0.5;entryDx=0;entryDy=0;endArrow=none;endFill=0;exitX=1;exitY=0.5;exitDx=0;exitDy=0;labelBackgroundColor=none;fontColor=default;" parent="1" source="9aB7gK6r0Hrf5LKnWwoQ-5" target="9aB7gK6r0Hrf5LKnWwoQ-12" edge="1">
          <mxGeometry relative="1" as="geometry">
            <mxPoint x="280" y="271" as="sourcePoint" />
          </mxGeometry>
        </mxCell>
        <mxCell id="9aB7gK6r0Hrf5LKnWwoQ-48" value="" style="endArrow=none;html=1;rounded=0;curved=0;endFill=0;labelBackgroundColor=none;fontColor=default;" parent="1" source="9aB7gK6r0Hrf5LKnWwoQ-7" target="9aB7gK6r0Hrf5LKnWwoQ-45" edge="1">
          <mxGeometry width="50" height="50" relative="1" as="geometry">
            <mxPoint x="730" y="300" as="sourcePoint" />
            <mxPoint x="680" y="280" as="targetPoint" />
          </mxGeometry>
        </mxCell>
        <mxCell id="9aB7gK6r0Hrf5LKnWwoQ-56" value="numero" style="text;html=1;align=center;verticalAlign=middle;resizable=0;points=[];autosize=1;strokeColor=none;fillColor=none;labelBackgroundColor=none;" parent="1" vertex="1">
          <mxGeometry x="460" y="730" width="60" height="30" as="geometry" />
        </mxCell>
        <mxCell id="9aB7gK6r0Hrf5LKnWwoQ-57" value="&lt;u&gt;id carta&lt;/u&gt;" style="text;html=1;align=center;verticalAlign=middle;resizable=0;points=[];autosize=1;strokeColor=none;fillColor=none;labelBackgroundColor=none;" parent="1" vertex="1">
          <mxGeometry x="465" y="670" width="60" height="30" as="geometry" />
        </mxCell>
        <mxCell id="9aB7gK6r0Hrf5LKnWwoQ-58" value="palo" style="text;html=1;align=center;verticalAlign=middle;resizable=0;points=[];autosize=1;strokeColor=none;fillColor=none;labelBackgroundColor=none;" parent="1" vertex="1">
          <mxGeometry x="465" y="700" width="50" height="30" as="geometry" />
        </mxCell>
        <mxCell id="9aB7gK6r0Hrf5LKnWwoQ-66" value="imagen" style="text;html=1;align=center;verticalAlign=middle;resizable=0;points=[];autosize=1;strokeColor=none;fillColor=none;labelBackgroundColor=none;" parent="1" vertex="1">
          <mxGeometry x="305" y="760" width="60" height="30" as="geometry" />
        </mxCell>
        <mxCell id="9aB7gK6r0Hrf5LKnWwoQ-82" value="N" style="text;html=1;align=center;verticalAlign=middle;resizable=0;points=[];autosize=1;strokeColor=none;fillColor=none;labelBackgroundColor=none;" parent="1" vertex="1">
          <mxGeometry x="285" y="190" width="30" height="30" as="geometry" />
        </mxCell>
        <mxCell id="9aB7gK6r0Hrf5LKnWwoQ-83" value="N" style="text;html=1;align=center;verticalAlign=middle;resizable=0;points=[];autosize=1;strokeColor=none;fillColor=none;labelBackgroundColor=none;" parent="1" vertex="1">
          <mxGeometry x="610" y="190" width="30" height="30" as="geometry" />
        </mxCell>
        <mxCell id="9aB7gK6r0Hrf5LKnWwoQ-95" value="tipo" style="text;html=1;align=center;verticalAlign=middle;resizable=0;points=[];autosize=1;strokeColor=none;fillColor=none;labelBackgroundColor=none;" parent="1" vertex="1">
          <mxGeometry x="205" y="90" width="40" height="30" as="geometry" />
        </mxCell>
        <mxCell id="9aB7gK6r0Hrf5LKnWwoQ-97" value="" style="endArrow=none;html=1;rounded=0;endFill=0;labelBackgroundColor=none;fontColor=default;" parent="1" source="9aB7gK6r0Hrf5LKnWwoQ-5" target="9aB7gK6r0Hrf5LKnWwoQ-95" edge="1">
          <mxGeometry width="50" height="50" relative="1" as="geometry">
            <mxPoint x="420" y="520" as="sourcePoint" />
            <mxPoint x="470" y="470" as="targetPoint" />
          </mxGeometry>
        </mxCell>
        <mxCell id="9aB7gK6r0Hrf5LKnWwoQ-98" value="" style="endArrow=none;html=1;rounded=0;endFill=0;labelBackgroundColor=none;fontColor=default;" parent="1" source="9aB7gK6r0Hrf5LKnWwoQ-95" target="9aB7gK6r0Hrf5LKnWwoQ-100" edge="1">
          <mxGeometry width="50" height="50" relative="1" as="geometry">
            <mxPoint x="300" y="120" as="sourcePoint" />
            <mxPoint x="470" y="470" as="targetPoint" />
          </mxGeometry>
        </mxCell>
        <mxCell id="9aB7gK6r0Hrf5LKnWwoQ-99" value="administrador" style="text;html=1;align=center;verticalAlign=middle;resizable=0;points=[];autosize=1;strokeColor=none;fillColor=none;labelBackgroundColor=none;" parent="1" vertex="1">
          <mxGeometry x="375" y="60" width="100" height="30" as="geometry" />
        </mxCell>
        <mxCell id="9aB7gK6r0Hrf5LKnWwoQ-100" value="jugador" style="text;html=1;align=center;verticalAlign=middle;resizable=0;points=[];autosize=1;strokeColor=none;fillColor=none;labelBackgroundColor=none;" parent="1" vertex="1">
          <mxGeometry x="392.5" y="110" width="60" height="30" as="geometry" />
        </mxCell>
        <mxCell id="9aB7gK6r0Hrf5LKnWwoQ-101" value="" style="endArrow=none;html=1;rounded=0;endFill=0;labelBackgroundColor=none;fontColor=default;" parent="1" source="9aB7gK6r0Hrf5LKnWwoQ-95" target="9aB7gK6r0Hrf5LKnWwoQ-99" edge="1">
          <mxGeometry width="50" height="50" relative="1" as="geometry">
            <mxPoint x="420" y="520" as="sourcePoint" />
            <mxPoint x="470" y="470" as="targetPoint" />
          </mxGeometry>
        </mxCell>
        <mxCell id="9aB7gK6r0Hrf5LKnWwoQ-102" value="N" style="text;html=1;align=center;verticalAlign=middle;resizable=0;points=[];autosize=1;strokeColor=none;fillColor=none;labelBackgroundColor=none;" parent="1" vertex="1">
          <mxGeometry x="335" y="650" width="30" height="30" as="geometry" />
        </mxCell>
        <mxCell id="9aB7gK6r0Hrf5LKnWwoQ-105" value="" style="endArrow=none;html=1;rounded=0;labelBackgroundColor=none;fontColor=default;" parent="1" source="9aB7gK6r0Hrf5LKnWwoQ-52" target="9aB7gK6r0Hrf5LKnWwoQ-7" edge="1">
          <mxGeometry width="50" height="50" relative="1" as="geometry">
            <mxPoint x="390" y="430" as="sourcePoint" />
            <mxPoint x="440" y="380" as="targetPoint" />
          </mxGeometry>
        </mxCell>
        <mxCell id="9aB7gK6r0Hrf5LKnWwoQ-106" value="" style="endArrow=none;html=1;rounded=0;labelBackgroundColor=none;fontColor=default;" parent="1" source="9aB7gK6r0Hrf5LKnWwoQ-8" target="9aB7gK6r0Hrf5LKnWwoQ-56" edge="1">
          <mxGeometry width="50" height="50" relative="1" as="geometry">
            <mxPoint x="385" y="500" as="sourcePoint" />
            <mxPoint x="435" y="450" as="targetPoint" />
          </mxGeometry>
        </mxCell>
        <mxCell id="9aB7gK6r0Hrf5LKnWwoQ-107" value="" style="endArrow=none;html=1;rounded=0;labelBackgroundColor=none;fontColor=default;" parent="1" source="9aB7gK6r0Hrf5LKnWwoQ-8" target="9aB7gK6r0Hrf5LKnWwoQ-58" edge="1">
          <mxGeometry width="50" height="50" relative="1" as="geometry">
            <mxPoint x="405" y="734" as="sourcePoint" />
            <mxPoint x="465" y="747" as="targetPoint" />
          </mxGeometry>
        </mxCell>
        <mxCell id="9aB7gK6r0Hrf5LKnWwoQ-109" value="" style="endArrow=none;html=1;rounded=0;labelBackgroundColor=none;fontColor=default;" parent="1" source="9aB7gK6r0Hrf5LKnWwoQ-8" target="9aB7gK6r0Hrf5LKnWwoQ-66" edge="1">
          <mxGeometry width="50" height="50" relative="1" as="geometry">
            <mxPoint x="425" y="754" as="sourcePoint" />
            <mxPoint x="485" y="767" as="targetPoint" />
          </mxGeometry>
        </mxCell>
        <mxCell id="9aB7gK6r0Hrf5LKnWwoQ-111" value="" style="endArrow=none;html=1;rounded=0;labelBackgroundColor=none;fontColor=default;" parent="1" source="9aB7gK6r0Hrf5LKnWwoQ-8" target="9aB7gK6r0Hrf5LKnWwoQ-57" edge="1">
          <mxGeometry width="50" height="50" relative="1" as="geometry">
            <mxPoint x="435" y="764" as="sourcePoint" />
            <mxPoint x="495" y="777" as="targetPoint" />
          </mxGeometry>
        </mxCell>
        <mxCell id="9aB7gK6r0Hrf5LKnWwoQ-115" value="" style="swimlane;startSize=0;" parent="1" vertex="1">
          <mxGeometry x="131.5" y="50" width="697" height="280" as="geometry" />
        </mxCell>
        <mxCell id="wrzfB2EDNtAskf0sWEYL-1" value="hora" style="text;html=1;align=center;verticalAlign=middle;resizable=0;points=[];autosize=1;strokeColor=none;fillColor=none;" vertex="1" parent="9aB7gK6r0Hrf5LKnWwoQ-115">
          <mxGeometry x="628.5" y="190" width="50" height="30" as="geometry" />
        </mxCell>
        <mxCell id="9aB7gK6r0Hrf5LKnWwoQ-45" value="fecha&amp;nbsp;" style="text;html=1;align=center;verticalAlign=middle;resizable=0;points=[];autosize=1;strokeColor=none;fillColor=none;labelBackgroundColor=none;" parent="9aB7gK6r0Hrf5LKnWwoQ-115" vertex="1">
          <mxGeometry x="498.5" y="220" width="60" height="30" as="geometry" />
        </mxCell>
        <mxCell id="9aB7gK6r0Hrf5LKnWwoQ-52" value="&lt;u&gt;id partida&lt;/u&gt;" style="text;html=1;align=center;verticalAlign=middle;resizable=0;points=[];autosize=1;strokeColor=none;fillColor=none;labelBackgroundColor=none;" parent="9aB7gK6r0Hrf5LKnWwoQ-115" vertex="1">
          <mxGeometry x="565.5" y="220" width="70" height="30" as="geometry" />
        </mxCell>
        <mxCell id="9aB7gK6r0Hrf5LKnWwoQ-40" value="&lt;u&gt;ID usuario&lt;/u&gt;" style="text;html=1;align=center;verticalAlign=middle;resizable=0;points=[];autosize=1;strokeColor=none;fillColor=none;labelBackgroundColor=none;" parent="9aB7gK6r0Hrf5LKnWwoQ-115" vertex="1">
          <mxGeometry x="8.5" y="220" width="80" height="30" as="geometry" />
        </mxCell>
        <mxCell id="9aB7gK6r0Hrf5LKnWwoQ-41" value="nombre" style="text;html=1;align=center;verticalAlign=middle;resizable=0;points=[];autosize=1;strokeColor=none;fillColor=none;labelBackgroundColor=none;" parent="9aB7gK6r0Hrf5LKnWwoQ-115" vertex="1">
          <mxGeometry x="128.5" y="220" width="60" height="30" as="geometry" />
        </mxCell>
        <mxCell id="9aB7gK6r0Hrf5LKnWwoQ-6" value="mano" style="rounded=0;whiteSpace=wrap;html=1;labelBackgroundColor=none;" parent="1" vertex="1">
          <mxGeometry x="274.5" y="505" width="120" height="60" as="geometry" />
        </mxCell>
        <mxCell id="9aB7gK6r0Hrf5LKnWwoQ-54" style="edgeStyle=orthogonalEdgeStyle;rounded=0;orthogonalLoop=1;jettySize=auto;html=1;exitX=1;exitY=0.25;exitDx=0;exitDy=0;endArrow=none;endFill=0;labelBackgroundColor=none;fontColor=default;" parent="1" source="9aB7gK6r0Hrf5LKnWwoQ-6" target="9aB7gK6r0Hrf5LKnWwoQ-49" edge="1">
          <mxGeometry relative="1" as="geometry" />
        </mxCell>
        <mxCell id="9aB7gK6r0Hrf5LKnWwoQ-14" value="" style="endArrow=oval;html=1;rounded=0;entryX=0.5;entryY=1;entryDx=0;entryDy=0;labelBackgroundColor=none;fontColor=default;exitX=0.675;exitY=0;exitDx=0;exitDy=0;exitPerimeter=0;endFill=1;endSize=10;" parent="1" source="9aB7gK6r0Hrf5LKnWwoQ-6" target="9aB7gK6r0Hrf5LKnWwoQ-11" edge="1">
          <mxGeometry width="50" height="50" relative="1" as="geometry">
            <mxPoint x="355" y="510" as="sourcePoint" />
            <mxPoint x="337.5" y="470" as="targetPoint" />
            <Array as="points" />
          </mxGeometry>
        </mxCell>
        <mxCell id="9aB7gK6r0Hrf5LKnWwoQ-49" value="&lt;u&gt;id mano&lt;/u&gt;" style="text;html=1;align=center;verticalAlign=middle;resizable=0;points=[];autosize=1;strokeColor=none;fillColor=none;labelBackgroundColor=none;" parent="1" vertex="1">
          <mxGeometry x="445" y="505" width="70" height="30" as="geometry" />
        </mxCell>
        <mxCell id="9aB7gK6r0Hrf5LKnWwoQ-88" value="1" style="text;html=1;align=center;verticalAlign=middle;resizable=0;points=[];autosize=1;strokeColor=none;fillColor=none;labelBackgroundColor=none;" parent="1" vertex="1">
          <mxGeometry x="325" y="475" width="30" height="30" as="geometry" />
        </mxCell>
        <mxCell id="9aB7gK6r0Hrf5LKnWwoQ-11" value="tiene" style="rhombus;whiteSpace=wrap;html=1;labelBackgroundColor=none;" parent="1" vertex="1">
          <mxGeometry x="327.5" y="400" width="55" height="50" as="geometry" />
        </mxCell>
        <mxCell id="9aB7gK6r0Hrf5LKnWwoQ-117" value="1" style="text;html=1;align=center;verticalAlign=middle;resizable=0;points=[];autosize=1;strokeColor=none;fillColor=none;" parent="1" vertex="1">
          <mxGeometry x="325" y="330" width="30" height="30" as="geometry" />
        </mxCell>
        <mxCell id="9aB7gK6r0Hrf5LKnWwoQ-121" style="edgeStyle=orthogonalEdgeStyle;rounded=0;orthogonalLoop=1;jettySize=auto;html=1;exitX=0.5;exitY=0;exitDx=0;exitDy=0;endArrow=none;endFill=0;" parent="1" source="9aB7gK6r0Hrf5LKnWwoQ-11" target="9aB7gK6r0Hrf5LKnWwoQ-115" edge="1">
          <mxGeometry relative="1" as="geometry">
            <Array as="points">
              <mxPoint x="355" y="350" />
              <mxPoint x="355" y="350" />
            </Array>
          </mxGeometry>
        </mxCell>
        <mxCell id="9aB7gK6r0Hrf5LKnWwoQ-126" value="suspendida" style="text;html=1;align=center;verticalAlign=middle;resizable=0;points=[];autosize=1;strokeColor=none;fillColor=none;" parent="1" vertex="1">
          <mxGeometry x="550" y="100" width="80" height="30" as="geometry" />
        </mxCell>
        <mxCell id="9aB7gK6r0Hrf5LKnWwoQ-129" value="" style="endArrow=none;html=1;rounded=0;endFill=0;" parent="1" source="9aB7gK6r0Hrf5LKnWwoQ-123" target="9aB7gK6r0Hrf5LKnWwoQ-126" edge="1">
          <mxGeometry width="50" height="50" relative="1" as="geometry">
            <mxPoint x="630" y="890" as="sourcePoint" />
            <mxPoint x="680" y="840" as="targetPoint" />
          </mxGeometry>
        </mxCell>
        <mxCell id="9aB7gK6r0Hrf5LKnWwoQ-123" value="estado" style="text;html=1;align=center;verticalAlign=middle;resizable=0;points=[];autosize=1;strokeColor=none;fillColor=none;" parent="1" vertex="1">
          <mxGeometry x="670" y="100" width="60" height="30" as="geometry" />
        </mxCell>
        <mxCell id="9aB7gK6r0Hrf5LKnWwoQ-130" value="" style="endArrow=none;html=1;rounded=0;endFill=0;" parent="1" source="9aB7gK6r0Hrf5LKnWwoQ-123" target="9aB7gK6r0Hrf5LKnWwoQ-127" edge="1">
          <mxGeometry width="50" height="50" relative="1" as="geometry">
            <mxPoint x="932" y="587" as="sourcePoint" />
            <mxPoint x="918" y="560" as="targetPoint" />
          </mxGeometry>
        </mxCell>
        <mxCell id="9aB7gK6r0Hrf5LKnWwoQ-127" value="finalizada" style="text;html=1;align=center;verticalAlign=middle;resizable=0;points=[];autosize=1;strokeColor=none;fillColor=none;" parent="1" vertex="1">
          <mxGeometry x="747" y="100" width="70" height="30" as="geometry" />
        </mxCell>
        <mxCell id="9aB7gK6r0Hrf5LKnWwoQ-103" value="N" style="text;html=1;align=center;verticalAlign=middle;resizable=0;points=[];autosize=1;strokeColor=none;fillColor=none;labelBackgroundColor=none;" parent="1" vertex="1">
          <mxGeometry x="335" y="565" width="30" height="30" as="geometry" />
        </mxCell>
        <mxCell id="wrzfB2EDNtAskf0sWEYL-2" value="" style="endArrow=none;html=1;rounded=0;" edge="1" parent="1" source="wrzfB2EDNtAskf0sWEYL-1" target="9aB7gK6r0Hrf5LKnWwoQ-7">
          <mxGeometry width="50" height="50" relative="1" as="geometry">
            <mxPoint x="700" y="430" as="sourcePoint" />
            <mxPoint x="750" y="380" as="targetPoint" />
          </mxGeometry>
        </mxCell>
        <mxCell id="wrzfB2EDNtAskf0sWEYL-3" value="" style="endArrow=none;html=1;rounded=0;" edge="1" parent="1" source="9aB7gK6r0Hrf5LKnWwoQ-40" target="9aB7gK6r0Hrf5LKnWwoQ-5">
          <mxGeometry width="50" height="50" relative="1" as="geometry">
            <mxPoint x="180" y="260" as="sourcePoint" />
            <mxPoint x="230" y="210" as="targetPoint" />
          </mxGeometry>
        </mxCell>
        <mxCell id="wrzfB2EDNtAskf0sWEYL-4" value="" style="endArrow=none;html=1;rounded=0;" edge="1" parent="1" source="9aB7gK6r0Hrf5LKnWwoQ-41" target="9aB7gK6r0Hrf5LKnWwoQ-5">
          <mxGeometry width="50" height="50" relative="1" as="geometry">
            <mxPoint x="197" y="280" as="sourcePoint" />
            <mxPoint x="221" y="230" as="targetPoint" />
          </mxGeometry>
        </mxCell>
      </root>
    </mxGraphModel>
  </diagram>
</mxfile>
